<svg width="20" height="20" viewBox="0 0 20 20" fill="none" xmlns="http://www.w3.org/2000/svg">
<g clip-path="url(#clip0_26_563)">
<path d="M10.625 0.625C10.625 0.45924 10.5592 0.300269 10.4419 0.183058C10.3247 0.065848 10.1658 0 10 0C9.83424 0 9.67527 0.065848 9.55806 0.183058C9.44085 0.300269 9.375 0.45924 9.375 0.625V1.2725C7.2758 1.42286 5.30112 2.32479 3.81296 3.81296C2.32479 5.30112 1.42286 7.2758 1.2725 9.375H0.625C0.45924 9.375 0.300269 9.44085 0.183058 9.55806C0.065848 9.67527 0 9.83424 0 10C0 10.1658 0.065848 10.3247 0.183058 10.4419C0.300269 10.5592 0.45924 10.625 0.625 10.625H1.2725C1.42286 12.7242 2.32479 14.6989 3.81296 16.187C5.30112 17.6752 7.2758 18.5771 9.375 18.7275V19.375C9.375 19.5408 9.44085 19.6997 9.55806 19.8169C9.67527 19.9342 9.83424 20 10 20C10.1658 20 10.3247 19.9342 10.4419 19.8169C10.5592 19.6997 10.625 19.5408 10.625 19.375V18.7275C12.7242 18.5771 14.6989 17.6752 16.187 16.187C17.6752 14.6989 18.5771 12.7242 18.7275 10.625H19.375C19.5408 10.625 19.6997 10.5592 19.8169 10.4419C19.9342 10.3247 20 10.1658 20 10C20 9.83424 19.9342 9.67527 19.8169 9.55806C19.6997 9.44085 19.5408 9.375 19.375 9.375H18.7275C18.5771 7.2758 17.6752 5.30112 16.187 3.81296C14.6989 2.32479 12.7242 1.42286 10.625 1.2725V0.625ZM2.525 9.375C2.67255 7.60764 3.44164 5.94975 4.6957 4.6957C5.94975 3.44164 7.60764 2.67255 9.375 2.525V3.125C9.375 3.29076 9.44085 3.44973 9.55806 3.56694C9.67527 3.68415 9.83424 3.75 10 3.75C10.1658 3.75 10.3247 3.68415 10.4419 3.56694C10.5592 3.44973 10.625 3.29076 10.625 3.125V2.525C12.3924 2.67255 14.0502 3.44164 15.3043 4.6957C16.5584 5.94975 17.3274 7.60764 17.475 9.375H16.875C16.7092 9.375 16.5503 9.44085 16.4331 9.55806C16.3158 9.67527 16.25 9.83424 16.25 10C16.25 10.1658 16.3158 10.3247 16.4331 10.4419C16.5503 10.5592 16.7092 10.625 16.875 10.625H17.475C17.3274 12.3924 16.5584 14.0502 15.3043 15.3043C14.0502 16.5584 12.3924 17.3274 10.625 17.475V16.875C10.625 16.7092 10.5592 16.5503 10.4419 16.4331C10.3247 16.3158 10.1658 16.25 10 16.25C9.83424 16.25 9.67527 16.3158 9.55806 16.4331C9.44085 16.5503 9.375 16.7092 9.375 16.875V17.475C7.60764 17.3274 5.94975 16.5584 4.6957 15.3043C3.44164 14.0502 2.67255 12.3924 2.525 10.625H3.125C3.29076 10.625 3.44973 10.5592 3.56694 10.4419C3.68415 10.3247 3.75 10.1658 3.75 10C3.75 9.83424 3.68415 9.67527 3.56694 9.55806C3.44973 9.44085 3.29076 9.375 3.125 9.375H2.525ZM10 12.5C10.663 12.5 11.2989 12.2366 11.7678 11.7678C12.2366 11.2989 12.5 10.663 12.5 10C12.5 9.33696 12.2366 8.70107 11.7678 8.23223C11.2989 7.76339 10.663 7.5 10 7.5C9.33696 7.5 8.70107 7.76339 8.23223 8.23223C7.76339 8.70107 7.5 9.33696 7.5 10C7.5 10.663 7.76339 11.2989 8.23223 11.7678C8.70107 12.2366 9.33696 12.5 10 12.5Z" fill="white"/>
</g>
<defs>
<clipPath id="clip0_26_563">
<rect width="20" height="20" fill="white"/>
</clipPath>
</defs>
</svg>
