<svg width="26" height="22" viewBox="0 0 26 22" fill="none" xmlns="http://www.w3.org/2000/svg">
<path fill-rule="evenodd" clip-rule="evenodd" d="M18.4502 0.674738C18.5259 0.750212 18.5859 0.839872 18.6269 0.938583C18.6679 1.03729 18.6889 1.14312 18.6889 1.24999C18.6889 1.35686 18.6679 1.46268 18.6269 1.56139C18.5859 1.6601 18.5259 1.74976 18.4502 1.82524L9.27386 11L18.4502 20.1747C18.6028 20.3273 18.6885 20.5342 18.6885 20.75C18.6885 20.9657 18.6028 21.1727 18.4502 21.3252C18.2977 21.4778 18.0907 21.5635 17.875 21.5635C17.6592 21.5635 17.4523 21.4778 17.2997 21.3252L7.54974 11.5752C7.47407 11.4998 7.41404 11.4101 7.37308 11.3114C7.33212 11.2127 7.31104 11.1069 7.31104 11C7.31104 10.8931 7.33212 10.7873 7.37308 10.6886C7.41404 10.5899 7.47407 10.5002 7.54974 10.4247L17.2997 0.674738C17.3752 0.599072 17.4649 0.53904 17.5636 0.49808C17.6623 0.457119 17.7681 0.436035 17.875 0.436035C17.9819 0.436035 18.0877 0.457119 18.1864 0.49808C18.2851 0.53904 18.3748 0.599072 18.4502 0.674738Z" fill="white"/>
</svg>
