<svg width="20" height="20" viewBox="0 0 20 20" fill="none" xmlns="http://www.w3.org/2000/svg">
<g clip-path="url(#clip0_26_549)">
<path d="M10 20.02C12.2731 20.0213 14.4692 19.1967 16.1797 17.6997C17.8902 16.2027 18.9986 14.1352 19.2985 11.882C19.5984 9.62876 19.0695 7.34333 17.8101 5.45099C16.5508 3.55866 14.6468 2.18832 12.4525 1.595C12.506 1.40882 12.5154 1.21276 12.4801 1.02229C12.4449 0.83183 12.3658 0.652172 12.2492 0.497499C12.1326 0.342826 11.9816 0.21737 11.8082 0.131032C11.6348 0.0446946 11.4437 -0.000162747 11.25 4.43672e-07H8.75C8.5563 -0.000162747 8.3652 0.0446946 8.1918 0.131032C8.0184 0.21737 7.86744 0.342826 7.75083 0.497499C7.63422 0.652172 7.55515 0.83183 7.51986 1.02229C7.48458 1.21276 7.49404 1.40882 7.5475 1.595C5.35322 2.18832 3.44924 3.55866 2.18989 5.45099C0.930539 7.34333 0.401605 9.62876 0.701524 11.882C1.00144 14.1352 2.10978 16.2027 3.82028 17.6997C5.53078 19.1967 7.72692 20.0213 10 20.02ZM18.125 10.645C18.125 12.7999 17.269 14.8665 15.7452 16.3902C14.2215 17.914 12.1549 18.77 10 18.77C7.84512 18.77 5.77849 17.914 4.25476 16.3902C2.73103 14.8665 1.875 12.7999 1.875 10.645C1.875 8.49012 2.73103 6.42349 4.25476 4.89976C5.77849 3.37602 7.84512 2.52 10 2.52C12.1549 2.52 14.2215 3.37602 15.7452 4.89976C17.269 6.42349 18.125 8.49012 18.125 10.645Z" fill="white"/>
<path d="M8.67501 9.30001L14.8625 5.76251L11.325 11.95L5.13876 15.4875L8.67501 9.30001Z" fill="white"/>
</g>
<defs>
<clipPath id="clip0_26_549">
<rect width="20" height="20" fill="white"/>
</clipPath>
</defs>
</svg>
