<svg width="20" height="20" viewBox="0 0 20 20" fill="none" xmlns="http://www.w3.org/2000/svg">
<g clip-path="url(#clip0_26_554)">
<path d="M10 0C7.34784 0 4.8043 1.05357 2.92893 2.92893C1.05357 4.8043 0 7.34784 0 10C0 12.6522 1.05357 15.1957 2.92893 17.0711C4.8043 18.9464 7.34784 20 10 20C12.6522 20 15.1957 18.9464 17.0711 17.0711C18.9464 15.1957 20 12.6522 20 10C20 7.34784 18.9464 4.8043 17.0711 2.92893C15.1957 1.05357 12.6522 0 10 0ZM4.585 3.12625L4.225 3.93375C4.11534 4.17642 4.10115 4.4515 4.18526 4.70416C4.26937 4.95682 4.4456 5.16851 4.67883 5.29703C4.91206 5.42555 5.18515 5.46146 5.44368 5.39761C5.70221 5.33376 5.92718 5.17483 6.07375 4.9525L6.38 4.4925C6.51684 4.28788 6.72353 4.14011 6.96142 4.07685C7.1993 4.01358 7.45209 4.03914 7.6725 4.14875C7.81301 4.21895 7.96793 4.25549 8.125 4.25549C8.28207 4.25549 8.43699 4.21895 8.5775 4.14875L8.90375 3.98625C9.0529 3.91176 9.21544 3.86785 9.38181 3.85712C9.54818 3.84638 9.71502 3.86904 9.8725 3.92375L11.1025 4.34875C11.2008 4.38208 11.3021 4.40458 11.4062 4.41625C12.3862 4.5325 12.475 4.8875 12.2738 5.4175C12.08 5.93 11.5038 6.18875 10.98 6.02625L10.9675 6.0225C10.3425 5.82875 9.685 5.625 7.5 5.625C6 5.625 4.375 7.025 4.375 8.75C4.375 11.2 5.4075 11.4575 6.495 11.7275C7.07 11.8713 7.66375 12.0188 8.125 12.5C8.68625 13.0837 8.61625 13.9762 8.54875 14.8462C8.44375 16.2 8.3425 17.5 10.625 17.5C12.8125 17.5 14.375 13.125 14.375 11.875C14.375 11.5475 14.635 11.29 14.93 11C15.425 10.51 16.0175 9.925 15.625 8.75C15.5037 8.38625 15.13 8.04 14.8238 7.805C14.6062 7.63875 14.565 7.31 14.7587 7.11625C14.8263 7.04754 14.9159 7.00468 15.0118 6.99509C15.1077 6.9855 15.2039 7.00979 15.2838 7.06375L16.64 7.96875C16.7775 8.05875 16.9587 8.04125 17.075 7.925C17.2625 7.7375 17.5938 7.82125 17.6863 8.07125C17.8862 8.60875 18.2425 9.38375 18.7475 9.7675L18.75 10C18.7499 11.4827 18.373 12.941 17.6548 14.2381C16.9366 15.5351 15.9006 16.6285 14.6439 17.4153C13.3873 18.2023 11.9514 18.6569 10.4709 18.7367C8.99037 18.8165 7.51386 18.5188 6.17997 17.8715C4.84607 17.2242 3.69852 16.2486 2.84506 15.0362C1.99159 13.8238 1.46019 12.4144 1.30074 10.9404C1.1413 9.46633 1.35903 7.97593 1.93351 6.60909C2.50799 5.24225 3.42037 4.0438 4.585 3.12625Z" fill="white"/>
</g>
<defs>
<clipPath id="clip0_26_554">
<rect width="20" height="20" fill="white"/>
</clipPath>
</defs>
</svg>
